<?xml version="1.0" encoding="utf-8"?>
<!-- Generator: Adobe Illustrator 16.0.4, SVG Export Plug-In . SVG Version: 6.00 Build 0)  -->
<!DOCTYPE svg PUBLIC "-//W3C//DTD SVG 1.1//EN" "http://www.w3.org/Graphics/SVG/1.1/DTD/svg11.dtd">
<svg version="1.1" id="Laag_1" xmlns="http://www.w3.org/2000/svg" xmlns:xlink="http://www.w3.org/1999/xlink" x="0px" y="0px"
	 width="100px" height="100px" viewBox="0 0 100 100" enable-background="new 0 0 100 100" xml:space="preserve">
<g>
	<path fill="#1D1E1C" d="M168.572,58.581l1.597-2.103c0.024-0.031,0.037-0.059,0.037-0.082c0-0.032-0.026-0.051-0.081-0.051h-1.287
		c-0.038,0-0.077,0.013-0.115,0.036c-0.042,0.023-0.074,0.056-0.098,0.094c-0.245,0.315-0.485,0.628-0.722,0.935
		c-0.238,0.307-0.479,0.619-0.725,0.935v-1.847c0-0.045-0.02-0.082-0.057-0.107c-0.037-0.026-0.072-0.041-0.105-0.041h-1.002
		c-0.046,0-0.083,0.016-0.108,0.044c-0.025,0.03-0.04,0.065-0.04,0.104v4.733c0,0.099,0.051,0.148,0.152,0.148h0.998
		c0.107,0,0.162-0.05,0.162-0.148v-1.322l0.43-0.494c0.113,0.167,0.215,0.327,0.311,0.477c0.095,0.153,0.19,0.302,0.281,0.45
		c0.092,0.147,0.188,0.295,0.287,0.444c0.098,0.149,0.207,0.305,0.325,0.468c0.026,0.039,0.057,0.07,0.093,0.092
		c0.038,0.022,0.076,0.034,0.114,0.034h1.282c0.047,0,0.073-0.018,0.073-0.051c0-0.022-0.012-0.054-0.037-0.092L168.572,58.581z"/>
	<path fill="#1D1E1C" d="M146.41,56.498c-0.005-0.041-0.023-0.077-0.056-0.105c-0.033-0.028-0.07-0.043-0.111-0.043h-1.158
		c-0.084,0-0.141,0.043-0.172,0.129l-0.929,3.075l-0.921-3.075c-0.025-0.086-0.079-0.129-0.163-0.129h-1.171
		c-0.049,0-0.088,0.016-0.116,0.044c-0.026,0.03-0.042,0.065-0.047,0.104l-0.484,4.733c0,0.099,0.048,0.148,0.145,0.148h0.96
		c0.106,0,0.161-0.05,0.165-0.148l0.294-2.612l0.763,2.629c0.002,0.025,0.018,0.053,0.048,0.083c0.03,0.031,0.06,0.047,0.086,0.047
		h0.892c0.026,0,0.054-0.017,0.082-0.049c0.028-0.032,0.044-0.06,0.05-0.081l0.763-2.636l0.294,2.619
		c0.004,0.099,0.059,0.148,0.162,0.148h0.959c0.099,0,0.148-0.045,0.148-0.132v-0.017c-0.078-0.796-0.16-1.585-0.242-2.367
		C146.57,58.082,146.489,57.294,146.41,56.498z"/>
	<path fill="#1D1E1C" d="M162.446,61.044l-0.871-1.64c0.122-0.069,0.233-0.153,0.337-0.251c0.103-0.099,0.192-0.208,0.266-0.329
		c0.074-0.121,0.133-0.251,0.175-0.391c0.04-0.138,0.062-0.284,0.062-0.438c0-0.226-0.043-0.438-0.129-0.64
		c-0.088-0.198-0.207-0.374-0.357-0.521c-0.151-0.148-0.329-0.269-0.532-0.354c-0.204-0.087-0.422-0.131-0.654-0.131h-2.188
		c-0.05,0-0.088,0.015-0.112,0.043c-0.025,0.028-0.037,0.066-0.037,0.111v4.729c0,0.05,0.014,0.086,0.042,0.111
		c0.026,0.023,0.063,0.035,0.108,0.035h1.005c0.104,0,0.157-0.049,0.157-0.146v-1.527h0.547l0.824,1.548
		c0.008,0.039,0.028,0.07,0.059,0.092c0.031,0.022,0.064,0.034,0.103,0.034h1.163c0.04,0,0.073-0.01,0.096-0.029
		c0.024-0.018,0.035-0.047,0.035-0.082c0-0.032-0.011-0.069-0.036-0.112C162.482,61.113,162.462,61.075,162.446,61.044z
		 M161.023,58.221c-0.023,0.068-0.056,0.132-0.098,0.187c-0.044,0.054-0.096,0.102-0.16,0.139c-0.062,0.038-0.133,0.061-0.213,0.069
		c-0.04,0.005-0.074,0.008-0.105,0.01c-0.032,0.003-0.067,0.004-0.108,0.004h-0.623v-1.242h0.467c0.066,0,0.125,0.001,0.181,0.005
		c0.055,0.002,0.114,0.007,0.176,0.013c0.077,0.01,0.147,0.034,0.211,0.072c0.063,0.039,0.118,0.087,0.163,0.145
		c0.046,0.056,0.082,0.117,0.105,0.185c0.024,0.067,0.038,0.136,0.038,0.204C161.057,58.081,161.045,58.152,161.023,58.221z"/>
	<path fill="#1D1E1C" d="M153.235,56.641l-0.084-0.193c-0.014-0.018-0.034-0.038-0.062-0.062c-0.026-0.023-0.059-0.036-0.098-0.036
		h-0.866c-0.02,0-0.038,0.004-0.059,0.013c-0.02,0.008-0.039,0.019-0.058,0.031c-0.018,0.014-0.034,0.028-0.045,0.045
		c-0.012,0.015-0.021,0.029-0.023,0.043l-1.839,4.765c-0.017,0.044-0.013,0.078,0.016,0.1c0.029,0.022,0.064,0.034,0.107,0.034h1
		c0.086,0,0.143-0.041,0.172-0.126c0.044-0.115,0.087-0.229,0.131-0.344c0.044-0.112,0.088-0.229,0.13-0.344h1.8
		c0.043,0.115,0.085,0.231,0.128,0.344c0.042,0.114,0.087,0.229,0.132,0.344c0.016,0.045,0.037,0.079,0.067,0.097
		c0.027,0.02,0.067,0.029,0.12,0.029h0.971c0.062,0,0.105-0.014,0.13-0.043c0.024-0.028,0.028-0.063,0.009-0.109L153.235,56.641z
		 M152.036,59.479c0.043-0.114,0.087-0.238,0.131-0.37c0.044-0.132,0.087-0.267,0.129-0.403c0.043-0.134,0.086-0.269,0.131-0.401
		c0.044-0.134,0.087-0.257,0.13-0.374l0.52,1.549H152.036z"/>
	<path fill="#1D1E1C" d="M197.673,56.35h-0.966c-0.035,0-0.068,0.012-0.095,0.033c-0.026,0.022-0.045,0.056-0.054,0.096v2.713
		c-0.289-0.463-0.574-0.92-0.855-1.369c-0.283-0.447-0.568-0.905-0.855-1.368c-0.024-0.038-0.054-0.065-0.088-0.081
		c-0.033-0.017-0.066-0.023-0.099-0.023h-1.106c-0.05,0-0.087,0.016-0.113,0.044c-0.023,0.03-0.036,0.065-0.036,0.104v4.735
		c0,0.041,0.013,0.075,0.035,0.104c0.024,0.029,0.062,0.043,0.114,0.043h0.962c0.058,0,0.099-0.013,0.122-0.037
		c0.021-0.025,0.033-0.062,0.033-0.111v-2.91c0.302,0.497,0.601,0.987,0.895,1.474c0.292,0.485,0.591,0.976,0.892,1.474
		c0.023,0.034,0.048,0.061,0.068,0.081c0.025,0.02,0.051,0.03,0.079,0.03h1.082c0.046,0,0.084-0.011,0.111-0.032
		c0.026-0.021,0.04-0.055,0.04-0.1v-4.75c0-0.047-0.017-0.084-0.048-0.109C197.759,56.362,197.721,56.35,197.673,56.35z"/>
	<path fill="#1D1E1C" d="M189.426,56.35h-0.996c-0.05,0-0.088,0.016-0.112,0.044c-0.022,0.03-0.037,0.065-0.037,0.104v4.733
		c0,0.099,0.05,0.148,0.149,0.148h0.996c0.11,0,0.166-0.05,0.166-0.148v-4.733c0-0.045-0.021-0.082-0.059-0.107
		C189.495,56.364,189.459,56.35,189.426,56.35z"/>
	<path fill="#1D1E1C" d="M205.7,59.141c-0.038-0.026-0.073-0.041-0.107-0.041h-0.921c-0.051,0-0.088,0.015-0.113,0.042
		c-0.024,0.028-0.036,0.065-0.036,0.108v0.887c-0.088,0.018-0.17,0.033-0.249,0.044c-0.079,0.012-0.156,0.018-0.235,0.018
		c-0.188,0-0.36-0.037-0.515-0.105c-0.155-0.069-0.29-0.166-0.401-0.286c-0.112-0.122-0.2-0.263-0.263-0.425
		c-0.064-0.164-0.095-0.337-0.095-0.521c0-0.187,0.03-0.36,0.095-0.524c0.062-0.163,0.15-0.307,0.263-0.428
		c0.111-0.122,0.246-0.219,0.401-0.29c0.154-0.071,0.327-0.106,0.515-0.106c0.148,0,0.289,0.023,0.42,0.067
		c0.132,0.045,0.255,0.109,0.37,0.19c0.049,0.032,0.089,0.04,0.117,0.028s0.06-0.038,0.09-0.072l0.549-0.793
		c0.028-0.048,0.033-0.091,0.012-0.128c-0.02-0.036-0.049-0.067-0.088-0.089c-0.21-0.143-0.438-0.252-0.679-0.327
		c-0.24-0.076-0.496-0.114-0.768-0.114c-0.239,0-0.468,0.032-0.688,0.095c-0.221,0.062-0.427,0.148-0.618,0.26
		c-0.192,0.112-0.367,0.247-0.525,0.404c-0.155,0.158-0.289,0.334-0.403,0.528c-0.113,0.192-0.2,0.399-0.262,0.619
		c-0.061,0.22-0.091,0.449-0.091,0.688c0,0.24,0.03,0.47,0.091,0.689c0.062,0.22,0.148,0.427,0.262,0.617
		c0.114,0.19,0.248,0.363,0.403,0.521c0.158,0.157,0.333,0.292,0.525,0.404c0.191,0.113,0.397,0.201,0.618,0.261
		c0.221,0.062,0.449,0.093,0.688,0.093c0.134,0,0.275-0.01,0.418-0.026c0.146-0.017,0.286-0.043,0.427-0.076
		c0.138-0.034,0.273-0.077,0.402-0.129c0.128-0.052,0.246-0.113,0.352-0.187c0.065-0.039,0.099-0.088,0.099-0.148V59.25
		C205.759,59.204,205.738,59.167,205.7,59.141z"/>
	<path fill="#1D1E1C" d="M184.574,56.35h-3.644c-0.046,0-0.084,0.015-0.114,0.041c-0.031,0.025-0.045,0.062-0.045,0.106v0.842
		c0,0.056,0.014,0.099,0.045,0.13c0.03,0.029,0.068,0.043,0.114,0.043h1.165v3.709c0,0.045,0.016,0.083,0.05,0.113
		s0.071,0.046,0.109,0.046h0.991c0.049,0,0.087-0.017,0.115-0.049c0.03-0.034,0.044-0.069,0.044-0.11v-3.709h1.169
		c0.053,0,0.092-0.02,0.12-0.057c0.028-0.036,0.043-0.076,0.043-0.116v-0.842c-0.005-0.049-0.022-0.086-0.055-0.11
		S184.615,56.35,184.574,56.35z"/>
	<path fill="#1D1E1C" d="M172.342,45.375c0.256,0.942,0.14,1.963-0.353,2.833c-0.15,0.269-0.335,0.521-0.558,0.755
		c-0.445,0.464-0.994,0.771-1.567,0.953c-0.571,0.201-1.193,0.283-1.832,0.179c-0.317-0.049-0.614-0.143-0.894-0.268
		c-0.918-0.398-1.625-1.145-1.984-2.052c-0.313-1.168,0.873-0.191,1.394,0.134c0.144,0.092,0.295,0.175,0.449,0.254
		c0.221,0.115,0.443,0.217,0.649,0.284c0.116,0.046,0.602,0.126,0.63,0.131c0.387,0.062,0.756,0.012,1.101-0.114
		c0.347-0.107,0.677-0.289,0.95-0.569c0.018-0.021,0.358-0.377,0.425-0.484c0.125-0.179,0.239-0.393,0.347-0.618
		c0.074-0.152,0.149-0.312,0.207-0.472C171.528,45.749,171.886,44.256,172.342,45.375z M172.325,36.763
		c0-0.424-0.344-0.769-0.769-0.769c-0.422,0-0.767,0.345-0.767,0.769c0,0.425,0.345,0.769,0.767,0.769
		C171.981,37.531,172.325,37.188,172.325,36.763z M178.148,37.244c0,1.078-0.363,2.068-0.971,2.868
		c-0.116,0.119-0.224,0.248-0.322,0.384c-0.462,0.623-0.74,1.391-0.74,2.225c0,0.062,0.008,0.123,0.008,0.185
		c0.098,1.979,1.732,3.563,3.738,3.563c2.067,0,3.748-1.682,3.748-3.748c0-0.32-0.045-0.63-0.122-0.927
		c-0.246-0.971-0.87-1.787-1.709-2.288c-1.104-0.488-0.331,0.835-0.09,1.398c0.163,0.387,0.303,0.803,0.354,1.171
		c0.027,0.124,0.029,0.612,0.029,0.645c0,1.219-0.99,2.209-2.21,2.209c-1.216,0-2.208-0.99-2.208-2.209
		c0-0.463,0.143-0.892,0.386-1.248c0.103-0.111,0.199-0.228,0.296-0.346c0.493-0.626,0.868-1.344,1.1-2.127
		c0.159-0.557,0.251-1.146,0.251-1.756c0-3.451-2.793-6.26-6.234-6.292V30.95c-0.01,0-0.021,0.002-0.03,0.002
		c-0.01,0-0.019-0.002-0.029-0.002v0.003c-3.444,0.031-6.234,2.84-6.234,6.292c0,0.61,0.09,1.199,0.252,1.756
		c0.227,0.783,0.604,1.501,1.097,2.127c0.093,0.118,0.191,0.234,0.297,0.346c0.243,0.356,0.385,0.785,0.385,1.248
		c0,1.219-0.992,2.209-2.208,2.209c-1.22,0-2.214-0.99-2.214-2.209c0-0.032,0.002-0.521,0.03-0.645
		c0.055-0.368,0.191-0.784,0.356-1.171c0.24-0.563,1.015-1.887-0.093-1.398c-0.836,0.501-1.461,1.316-1.71,2.288
		c-0.075,0.297-0.12,0.606-0.12,0.927c0,2.066,1.681,3.748,3.751,3.748c2.003,0,3.64-1.585,3.737-3.563
		c0.005-0.062,0.009-0.122,0.009-0.185c0-0.834-0.276-1.603-0.738-2.225c-0.1-0.136-0.208-0.265-0.325-0.384
		c-0.606-0.8-0.97-1.79-0.97-2.868c0-2.612,2.118-4.74,4.727-4.755C176.03,32.504,178.148,34.632,178.148,37.244z M181.715,47.776
		c0.312-1.168-0.874-0.191-1.396,0.134c-0.145,0.092-0.295,0.175-0.448,0.254c-0.222,0.115-0.443,0.217-0.649,0.284
		c-0.116,0.046-0.601,0.126-0.63,0.131c-0.387,0.062-0.758,0.012-1.102-0.114c-0.346-0.107-0.677-0.289-0.949-0.569
		c-0.019-0.021-0.357-0.377-0.426-0.484c-0.125-0.179-0.238-0.393-0.346-0.617c-0.075-0.153-0.149-0.312-0.207-0.473
		c-0.224-0.572-0.581-2.064-1.037-0.945c-0.256,0.942-0.139,1.963,0.353,2.833c0.152,0.269,0.335,0.521,0.559,0.755
		c0.444,0.464,0.993,0.771,1.565,0.953c0.572,0.201,1.195,0.283,1.832,0.179c0.317-0.049,0.614-0.143,0.895-0.268
		C180.648,49.429,181.354,48.683,181.715,47.776z M174.519,36.763c0,0.425,0.342,0.769,0.769,0.769c0.42,0,0.768-0.344,0.768-0.769
		c0-0.424-0.348-0.769-0.768-0.769C174.86,35.994,174.519,36.339,174.519,36.763z"/>
	<path fill="#1D1E1C" d="M177.351,60.218h-2.277v-0.867h1.697c0.046,0,0.083-0.015,0.109-0.044c0.023-0.028,0.036-0.06,0.036-0.092
		v-0.731c0-0.047-0.013-0.081-0.044-0.102c-0.027-0.021-0.062-0.03-0.105-0.03h-1.693v-0.84h2.195c0.052,0,0.092-0.019,0.117-0.053
		c0.029-0.034,0.042-0.071,0.042-0.109v-0.837c0-0.052-0.013-0.091-0.042-0.119c-0.025-0.028-0.063-0.044-0.115-0.044h-3.359
		c-0.046,0-0.084,0.015-0.111,0.043c-0.025,0.028-0.037,0.066-0.037,0.111v4.729c0,0.05,0.012,0.086,0.04,0.111
		c0.028,0.023,0.064,0.035,0.108,0.035h3.425c0.083,0,0.131-0.032,0.138-0.095c0.019-0.019,0.029-0.038,0.029-0.061v-0.852
		C177.503,60.27,177.451,60.218,177.351,60.218z"/>
</g>
<g>
	<path fill="#FFFFFF" d="M44.572,58.581l1.597-2.103c0.024-0.031,0.037-0.059,0.037-0.082c0-0.032-0.026-0.051-0.081-0.051h-1.287
		c-0.038,0-0.077,0.013-0.115,0.036c-0.042,0.023-0.074,0.056-0.098,0.094c-0.245,0.315-0.485,0.628-0.722,0.935
		c-0.238,0.307-0.479,0.619-0.725,0.935v-1.847c0-0.045-0.02-0.082-0.057-0.107c-0.037-0.026-0.072-0.041-0.105-0.041h-1.002
		c-0.046,0-0.083,0.016-0.108,0.044c-0.025,0.03-0.04,0.065-0.04,0.104v4.733c0,0.099,0.051,0.148,0.152,0.148h0.998
		c0.107,0,0.162-0.05,0.162-0.148v-1.322l0.43-0.494c0.113,0.167,0.215,0.327,0.311,0.477c0.095,0.153,0.19,0.302,0.281,0.45
		c0.092,0.147,0.188,0.295,0.287,0.444c0.098,0.149,0.207,0.305,0.325,0.468c0.026,0.039,0.057,0.07,0.093,0.092
		c0.038,0.022,0.076,0.034,0.114,0.034h1.282c0.047,0,0.073-0.018,0.073-0.051c0-0.022-0.012-0.054-0.037-0.092L44.572,58.581z"/>
	<path fill="#FFFFFF" d="M22.41,56.498c-0.005-0.041-0.023-0.077-0.056-0.105c-0.033-0.028-0.07-0.043-0.111-0.043h-1.158
		c-0.084,0-0.141,0.043-0.172,0.129l-0.929,3.075l-0.921-3.075c-0.025-0.086-0.079-0.129-0.163-0.129h-1.171
		c-0.049,0-0.088,0.016-0.116,0.044c-0.026,0.03-0.042,0.065-0.047,0.104l-0.484,4.733c0,0.099,0.048,0.148,0.145,0.148h0.96
		c0.106,0,0.161-0.05,0.165-0.148l0.294-2.612l0.763,2.629c0.002,0.025,0.018,0.053,0.048,0.083c0.03,0.031,0.06,0.047,0.086,0.047
		h0.892c0.026,0,0.054-0.017,0.082-0.049c0.028-0.032,0.044-0.06,0.05-0.081l0.763-2.636l0.294,2.619
		c0.004,0.099,0.059,0.148,0.162,0.148h0.959c0.099,0,0.148-0.045,0.148-0.132v-0.017c-0.078-0.796-0.16-1.585-0.242-2.367
		C22.57,58.082,22.489,57.294,22.41,56.498z"/>
	<path fill="#FFFFFF" d="M38.446,61.044l-0.871-1.64c0.122-0.069,0.233-0.153,0.337-0.251c0.103-0.099,0.192-0.208,0.266-0.329
		c0.074-0.121,0.133-0.251,0.175-0.391c0.04-0.138,0.062-0.284,0.062-0.438c0-0.226-0.043-0.438-0.129-0.64
		c-0.088-0.198-0.207-0.374-0.357-0.521c-0.151-0.148-0.329-0.269-0.532-0.354c-0.204-0.087-0.422-0.131-0.654-0.131h-2.188
		c-0.05,0-0.088,0.015-0.112,0.043c-0.025,0.028-0.037,0.066-0.037,0.111v4.729c0,0.05,0.014,0.086,0.042,0.111
		c0.026,0.023,0.063,0.035,0.108,0.035h1.005c0.104,0,0.157-0.049,0.157-0.146v-1.527h0.547l0.824,1.548
		c0.008,0.039,0.028,0.07,0.059,0.092c0.031,0.022,0.064,0.034,0.103,0.034h1.163c0.04,0,0.073-0.01,0.096-0.029
		c0.024-0.018,0.035-0.047,0.035-0.082c0-0.032-0.011-0.069-0.036-0.112C38.482,61.113,38.462,61.075,38.446,61.044z M37.023,58.221
		c-0.023,0.068-0.056,0.132-0.098,0.187c-0.044,0.054-0.096,0.102-0.16,0.139c-0.062,0.038-0.133,0.061-0.213,0.069
		c-0.04,0.005-0.074,0.008-0.105,0.01c-0.032,0.003-0.067,0.004-0.108,0.004h-0.623v-1.242h0.467c0.066,0,0.125,0.001,0.181,0.005
		c0.055,0.002,0.114,0.007,0.176,0.013c0.077,0.01,0.147,0.034,0.211,0.072c0.063,0.039,0.118,0.087,0.163,0.145
		c0.046,0.056,0.082,0.117,0.105,0.185c0.024,0.067,0.038,0.136,0.038,0.204C37.057,58.081,37.045,58.152,37.023,58.221z"/>
	<path fill="#FFFFFF" d="M29.235,56.641l-0.084-0.193c-0.014-0.018-0.034-0.038-0.062-0.062c-0.026-0.023-0.059-0.036-0.098-0.036
		h-0.866c-0.02,0-0.038,0.004-0.059,0.013c-0.02,0.008-0.039,0.019-0.058,0.031c-0.018,0.014-0.034,0.028-0.045,0.045
		c-0.012,0.015-0.021,0.029-0.023,0.043l-1.839,4.765c-0.017,0.044-0.013,0.078,0.016,0.1c0.029,0.022,0.064,0.034,0.107,0.034h1
		c0.086,0,0.143-0.041,0.172-0.126c0.044-0.115,0.087-0.229,0.131-0.344c0.044-0.112,0.088-0.229,0.13-0.344h1.8
		c0.043,0.115,0.085,0.231,0.128,0.344c0.042,0.114,0.087,0.229,0.132,0.344c0.016,0.045,0.037,0.079,0.067,0.097
		c0.027,0.02,0.067,0.029,0.12,0.029h0.971c0.062,0,0.105-0.014,0.13-0.043c0.024-0.028,0.028-0.063,0.009-0.109L29.235,56.641z
		 M28.036,59.479c0.043-0.114,0.087-0.238,0.131-0.37c0.044-0.132,0.087-0.267,0.129-0.403c0.043-0.134,0.086-0.269,0.131-0.401
		c0.044-0.134,0.087-0.257,0.13-0.374l0.52,1.549H28.036z"/>
	<path fill="#FFFFFF" d="M73.673,56.35h-0.966c-0.035,0-0.068,0.012-0.095,0.033c-0.026,0.022-0.045,0.056-0.054,0.096v2.713
		c-0.289-0.463-0.574-0.92-0.855-1.369c-0.283-0.447-0.568-0.905-0.855-1.368c-0.024-0.038-0.054-0.065-0.088-0.081
		c-0.033-0.017-0.066-0.023-0.099-0.023h-1.106c-0.05,0-0.087,0.016-0.113,0.044c-0.023,0.03-0.036,0.065-0.036,0.104v4.735
		c0,0.041,0.013,0.075,0.035,0.104c0.024,0.029,0.062,0.043,0.114,0.043h0.962c0.058,0,0.099-0.013,0.122-0.037
		c0.021-0.025,0.033-0.062,0.033-0.111v-2.91c0.302,0.497,0.601,0.987,0.895,1.474c0.292,0.485,0.591,0.976,0.892,1.474
		c0.023,0.034,0.048,0.061,0.068,0.081c0.025,0.02,0.051,0.03,0.079,0.03h1.082c0.046,0,0.084-0.011,0.111-0.032
		c0.026-0.021,0.04-0.055,0.04-0.1v-4.75c0-0.047-0.017-0.084-0.048-0.109C73.759,56.362,73.721,56.35,73.673,56.35z"/>
	<path fill="#FFFFFF" d="M65.426,56.35H64.43c-0.05,0-0.088,0.016-0.112,0.044c-0.022,0.03-0.037,0.065-0.037,0.104v4.733
		c0,0.099,0.05,0.148,0.149,0.148h0.996c0.11,0,0.166-0.05,0.166-0.148v-4.733c0-0.045-0.021-0.082-0.059-0.107
		C65.495,56.364,65.459,56.35,65.426,56.35z"/>
	<path fill="#FFFFFF" d="M81.7,59.141c-0.038-0.026-0.073-0.041-0.107-0.041h-0.921c-0.051,0-0.088,0.015-0.113,0.042
		c-0.024,0.028-0.036,0.065-0.036,0.108v0.887c-0.088,0.018-0.17,0.033-0.249,0.044c-0.079,0.012-0.156,0.018-0.235,0.018
		c-0.188,0-0.36-0.037-0.515-0.105c-0.155-0.069-0.29-0.166-0.401-0.286c-0.112-0.122-0.2-0.263-0.263-0.425
		c-0.064-0.164-0.095-0.337-0.095-0.521c0-0.187,0.03-0.36,0.095-0.524c0.062-0.163,0.15-0.307,0.263-0.428
		c0.111-0.122,0.246-0.219,0.401-0.29c0.154-0.071,0.327-0.106,0.515-0.106c0.148,0,0.289,0.023,0.42,0.067
		c0.132,0.045,0.255,0.109,0.37,0.19c0.049,0.032,0.089,0.04,0.117,0.028s0.06-0.038,0.09-0.072l0.549-0.793
		c0.028-0.048,0.033-0.091,0.012-0.128c-0.02-0.036-0.049-0.067-0.088-0.089c-0.21-0.143-0.438-0.252-0.679-0.327
		c-0.24-0.076-0.496-0.114-0.768-0.114c-0.239,0-0.468,0.032-0.688,0.095c-0.221,0.062-0.427,0.148-0.618,0.26
		c-0.192,0.112-0.367,0.247-0.525,0.404c-0.155,0.158-0.289,0.334-0.403,0.528c-0.113,0.192-0.2,0.399-0.262,0.619
		c-0.061,0.22-0.091,0.449-0.091,0.688c0,0.24,0.03,0.47,0.091,0.689c0.062,0.22,0.148,0.427,0.262,0.617
		c0.114,0.19,0.248,0.363,0.403,0.521c0.158,0.157,0.333,0.292,0.525,0.404c0.191,0.113,0.397,0.201,0.618,0.261
		c0.221,0.062,0.449,0.093,0.688,0.093c0.134,0,0.275-0.01,0.418-0.026c0.146-0.017,0.286-0.043,0.427-0.076
		c0.138-0.034,0.273-0.077,0.402-0.129c0.128-0.052,0.246-0.113,0.352-0.187c0.065-0.039,0.099-0.088,0.099-0.148V59.25
		C81.759,59.204,81.738,59.167,81.7,59.141z"/>
	<path fill="#FFFFFF" d="M60.574,56.35h-3.644c-0.046,0-0.084,0.015-0.114,0.041c-0.031,0.025-0.045,0.062-0.045,0.106v0.842
		c0,0.056,0.014,0.099,0.045,0.13c0.03,0.029,0.068,0.043,0.114,0.043h1.165v3.709c0,0.045,0.016,0.083,0.05,0.113
		s0.071,0.046,0.109,0.046h0.991c0.049,0,0.087-0.017,0.115-0.049c0.03-0.034,0.044-0.069,0.044-0.11v-3.709h1.169
		c0.053,0,0.092-0.02,0.12-0.057c0.028-0.036,0.043-0.076,0.043-0.116v-0.842c-0.005-0.049-0.022-0.086-0.055-0.11
		S60.615,56.35,60.574,56.35z"/>
	<path fill="#FFFFFF" d="M48.342,45.375c0.256,0.942,0.14,1.963-0.353,2.833c-0.15,0.269-0.335,0.521-0.558,0.755
		c-0.445,0.464-0.994,0.771-1.567,0.953c-0.571,0.201-1.193,0.283-1.832,0.179c-0.317-0.049-0.614-0.143-0.894-0.268
		c-0.918-0.398-1.625-1.145-1.984-2.052c-0.313-1.168,0.873-0.191,1.394,0.134c0.144,0.092,0.295,0.175,0.449,0.254
		c0.221,0.115,0.443,0.217,0.649,0.284c0.116,0.046,0.602,0.126,0.63,0.131c0.387,0.062,0.756,0.012,1.101-0.114
		c0.347-0.107,0.677-0.289,0.95-0.569c0.018-0.021,0.358-0.377,0.425-0.484c0.125-0.179,0.239-0.393,0.347-0.618
		c0.074-0.152,0.149-0.312,0.207-0.472C47.528,45.749,47.886,44.256,48.342,45.375z M48.325,36.763c0-0.424-0.344-0.769-0.769-0.769
		c-0.422,0-0.767,0.345-0.767,0.769c0,0.425,0.345,0.769,0.767,0.769C47.981,37.531,48.325,37.188,48.325,36.763z M54.148,37.244
		c0,1.078-0.363,2.068-0.971,2.868c-0.116,0.119-0.224,0.248-0.322,0.384c-0.462,0.623-0.74,1.391-0.74,2.225
		c0,0.062,0.008,0.123,0.008,0.185c0.098,1.979,1.732,3.563,3.738,3.563c2.067,0,3.748-1.682,3.748-3.748
		c0-0.32-0.045-0.63-0.122-0.927c-0.246-0.971-0.87-1.787-1.709-2.288c-1.104-0.488-0.331,0.835-0.09,1.398
		c0.163,0.387,0.303,0.803,0.354,1.171c0.027,0.124,0.029,0.612,0.029,0.645c0,1.219-0.99,2.209-2.21,2.209
		c-1.216,0-2.208-0.99-2.208-2.209c0-0.463,0.143-0.892,0.386-1.248c0.103-0.111,0.199-0.228,0.296-0.346
		c0.493-0.626,0.868-1.344,1.1-2.127c0.159-0.557,0.251-1.146,0.251-1.756c0-3.451-2.793-6.26-6.234-6.292V30.95
		c-0.01,0-0.021,0.002-0.03,0.002c-0.01,0-0.019-0.002-0.029-0.002v0.003c-3.444,0.031-6.234,2.84-6.234,6.292
		c0,0.61,0.09,1.199,0.252,1.756c0.227,0.783,0.604,1.501,1.097,2.127c0.093,0.118,0.191,0.234,0.297,0.346
		c0.243,0.356,0.385,0.785,0.385,1.248c0,1.219-0.992,2.209-2.208,2.209c-1.22,0-2.214-0.99-2.214-2.209
		c0-0.032,0.002-0.521,0.03-0.645c0.055-0.368,0.191-0.784,0.356-1.171c0.24-0.563,1.015-1.887-0.093-1.398
		c-0.836,0.501-1.461,1.316-1.71,2.288c-0.075,0.297-0.12,0.606-0.12,0.927c0,2.066,1.681,3.748,3.751,3.748
		c2.003,0,3.64-1.585,3.737-3.563c0.005-0.062,0.009-0.122,0.009-0.185c0-0.834-0.276-1.603-0.738-2.225
		c-0.1-0.136-0.208-0.265-0.325-0.384c-0.606-0.8-0.97-1.79-0.97-2.868c0-2.612,2.118-4.74,4.727-4.755
		C52.03,32.504,54.148,34.632,54.148,37.244z M57.715,47.776c0.312-1.168-0.874-0.191-1.396,0.134
		c-0.145,0.092-0.295,0.175-0.448,0.254c-0.222,0.115-0.443,0.217-0.649,0.284c-0.116,0.046-0.601,0.126-0.63,0.131
		c-0.387,0.062-0.758,0.012-1.102-0.114c-0.346-0.107-0.677-0.289-0.949-0.569c-0.019-0.021-0.357-0.377-0.426-0.484
		c-0.125-0.179-0.238-0.393-0.346-0.617c-0.075-0.153-0.149-0.312-0.207-0.473c-0.224-0.572-0.581-2.064-1.037-0.945
		c-0.256,0.942-0.139,1.963,0.353,2.833c0.152,0.269,0.335,0.521,0.559,0.755c0.444,0.464,0.993,0.771,1.565,0.953
		c0.572,0.201,1.195,0.283,1.832,0.179c0.317-0.049,0.614-0.143,0.895-0.268C56.648,49.429,57.354,48.683,57.715,47.776z
		 M50.519,36.763c0,0.425,0.342,0.769,0.769,0.769c0.42,0,0.768-0.344,0.768-0.769c0-0.424-0.348-0.769-0.768-0.769
		C50.86,35.994,50.519,36.339,50.519,36.763z"/>
	<path fill="#FFFFFF" d="M53.351,60.218h-2.277v-0.867h1.697c0.046,0,0.083-0.015,0.109-0.044c0.023-0.028,0.036-0.06,0.036-0.092
		v-0.731c0-0.047-0.013-0.081-0.044-0.102c-0.027-0.021-0.062-0.03-0.105-0.03h-1.693v-0.84h2.195c0.052,0,0.092-0.019,0.117-0.053
		c0.029-0.034,0.042-0.071,0.042-0.109v-0.837c0-0.052-0.013-0.091-0.042-0.119c-0.025-0.028-0.063-0.044-0.115-0.044h-3.359
		c-0.046,0-0.084,0.015-0.111,0.043c-0.025,0.028-0.037,0.066-0.037,0.111v4.729c0,0.05,0.012,0.086,0.04,0.111
		c0.028,0.023,0.064,0.035,0.108,0.035h3.425c0.083,0,0.131-0.032,0.138-0.095c0.019-0.019,0.029-0.038,0.029-0.061v-0.852
		C53.503,60.27,53.451,60.218,53.351,60.218z"/>
</g>
</svg>
